<?xml version="1.0" encoding="UTF-8"?>
<svg id="Isolation_Mode" data-name="Isolation Mode" xmlns="http://www.w3.org/2000/svg" viewBox="0 0 512 512">
  <path fill="white" d="M136.43,68.81v24.81h-37.22c-6.49,0-17.95,18.86-18.98,26.14-6.03,42.48,15.64,100.39-22.71,130.64,37.34,29.92,18.34,92.04,22.43,135.43,1.15,12.19,7.41,25.95,20.32,29.3,24.49,6.35,41.14-12.95,36.16,28.13h-34.96c-16.84,0-38.73-21.72-44.4-36.8-11.45-30.47,4.94-113.2-10.79-131.32-5.18-5.97-13.68-6.61-20.51-9.11,1.24-5.21-1.41-27.97.39-30.04.59-.68,11.96-2.53,16.71-6.97,3.46-3.24,9.23-14.66,9.96-19.36,6.04-38.59-14.36-102.01,21.58-129.56,4.03-3.09,20.69-11.29,24.8-11.29h37.22Z"/>
  <path fill="white" d="M410.5,416.19c3.44-.68,10.56-6.32,13.01-9.55,17.25-22.78,3.58-94.59,9.45-125.89,3.23-17.22,11.69-19.02,22.34-29.04,5.09-4.79-8.28-8.22-13.08-13.86-27.73-32.53,12.38-127.5-33.45-142.5-22.27-7.29-40.62,11.67-35.5-26.56,32.56-1.55,67.1,2.16,79.39,36.81,11.13,31.38-6.67,102.64,17.54,122.31,4.34,3.53,13.77,6.14,14.84,7.72,3.36,4.97-.38,23.38,1.16,30.38-17.37,3.17-25.46,10.79-28.45,28.24-9.63,56.26,26.39,145.25-62.93,149.09-27.33,1.18-18.31-5.33-17.03-27.16,9.77-1.31,23.6,1.81,32.71,0Z"/>
  <g>
    <path fill="white" d="M395.84,249.27v34.96c0,6.68-14.25,39.46-18.49,46.93-3.51,6.18-25.43,36.6-30.33,37.44l-75.2-50.53,124.02-68.8Z"/>
    <path fill="white" d="M199.58,247.02l1.12,142.12c-25.71-13.08-52.12-37.65-64.68-63.89-4.01-8.38-15.23-33.63-7.23-39.66l70.79-38.57Z"/>
    <path fill="white" d="M314.63,276.34v-142.11c25.6,11.65,50.91,33.63,64.42,58.52,3.17,5.84,12.41,29.71,12.11,35.24-.63,11.72-64.08,41.86-76.53,48.36Z"/>
    <path fill="white" d="M213.13,301.15c19.93,8.78,37.81,21.14,55.76,33.34,17.84,12.13,39.51,27.4,56.39,40.6,2.2,1.72,5.74,2.45,5.17,6.12-17.04,6.9-34.3,17.3-53.06,19.17-8.91.89-64.27,1.12-64.27-10.13v-89.1Z"/>
    <path fill="white" d="M301.1,226.71l-110.52-82.24c9.34-20.82,110.52-26.96,110.52-13.63v95.87Z"/>
    <path fill="white" d="M122.92,271.83c-2.91-45.71,17.59-87.19,51.86-116.32,8.68,5.74,64.27,45.14,65.33,49.95.81,3.69-9.03,8.77-11.9,10.4-34.45,19.53-71.58,35.02-105.29,55.98Z"/>
  </g>
</svg>