<?xml version="1.0" encoding="UTF-8"?>
<svg id="Layer_1" data-name="Layer 1" xmlns="http://www.w3.org/2000/svg" viewBox="0 0 176 176">
  <g>
    <path d="M34.26,153.69c-20.98-3.49-12.01-37.4-14.17-51.36-1.19-7.74-7.16-6.64-8.66-8.65-.25-.34,1.18-6.41-.38-8.24,3.21.48,5.51-.53,7.28-3.19,3.86-5.81,1-26.31,1.83-34.57,1.68-16.64,14.66-20.11,29.12-17.76v7.29c-30.21-4.19-18.24,25.59-20.99,43.17-.42,2.66-3.2,8.47-6.31,8.72v1.78c2.87.52,5.89,6.07,6.31,8.72,1.41,9.04-.72,21.37.03,30.92,1.06,13.53,8.26,16.51,20.96,14.07v9.1c-4.6-.53-10.62.73-15.01,0Z"/>
    <path d="M140.74,29.91c19.04,3.15,11.55,32.72,13.44,45.72.76,5.24,3.15,9.37,8.76,9.89l.16,7.54c-2.6,1.17-5.12,1.61-6.94,4.14-4.54,6.28-1.28,30.58-2.17,39.69-1.33,13.55-15.33,18.28-27.35,16.8v-9.11c9.67.31,18.03,1.47,19.15-10.43,1.14-12.11-3.69-34.06,5.39-42.85.84-.82,3.52-1.47,2.76-2.22-.11-.11-1.86-.46-2.76-1.34-9.1-8.82-3.99-29.29-5.4-41.02-1.18-9.8-10.17-10-18.23-9.53v-7.29c4.07.47,9.32-.64,13.2,0Z"/>
    <path d="M69.3,85.43v50.06c-10.22-6.32-20.77-14.87-24.74-26.68-.85-2.53-2.81-7.03-.76-9.28l25.49-14.09Z"/>
    <path d="M73.85,104.54l40.04,28.2c-12.44,5.4-27.69,9.48-40.56,3.67-.36-.71.52-1.19.52-1.38v-30.49Z"/>
    <path d="M82.94,72.67l-41.85,21.86c.26-8.59,2.62-17.1,6.8-24.59,1.75-3.14,11.42-16.88,15.01-15.06,5.11,6.19,13.6,10.12,19.07,15.59.75.75,1.31.81.96,2.2Z"/>
    <path d="M107.53,98.16l.46-50.06c9.45,5.2,19.27,14.97,22.98,25.26,1.09,3.02,3.58,8.91,1.14,11.63l-24.58,13.18Z"/>
    <path d="M93.87,110.92l40.94-21.85c.44,7.76-.13,14.8-2.94,22.08-1.53,3.95-9.34,17.6-13.68,16.94-4.33-.65-19.59-14.17-24.33-17.17Z"/>
    <path d="M103.88,79.06l-38.23-28.2c10.89-6.72,26.39-9.18,38.23-4.11v32.31Z"/>
  </g>
</svg>
