<?xml version="1.0" encoding="UTF-8"?>
<svg id="Layer_1" data-name="Layer 1" xmlns="http://www.w3.org/2000/svg" viewBox="0 0 512 512">
  <g>
    <path d="M177.55,44.87v15.08h-22.62c-3.95,0-10.91,11.46-11.54,15.89-3.66,25.82,9.51,61.02-13.81,79.41,22.7,18.18,11.15,55.94,13.63,82.32.7,7.41,4.5,15.78,12.35,17.81,14.89,3.86,25.01-7.87,21.98,17.1h-21.25c-10.23,0-23.54-13.2-26.99-22.37-6.96-18.52,3.01-68.81-6.56-79.83-3.15-3.63-8.32-4.02-12.47-5.54.76-3.17-.85-17,.24-18.26.36-.42,7.27-1.54,10.15-4.24,2.1-1.97,5.61-8.91,6.06-11.77,3.67-23.46-8.73-62.01,13.11-78.75,2.45-1.88,12.57-6.86,15.08-6.86h22.62Z"/>
    <path d="M344.15,256.03c2.09-.41,6.42-3.84,7.91-5.81,10.49-13.85,2.18-57.5,5.74-76.52,1.96-10.47,7.1-11.56,13.58-17.65,3.09-2.91-5.03-4.99-7.95-8.42-16.85-19.77,7.53-77.5-20.33-86.62-13.54-4.43-24.69,7.09-21.58-16.14,19.79-.94,40.78,1.31,48.26,22.37,6.77,19.08-4.05,62.39,10.66,74.35,2.64,2.14,8.37,3.73,9.02,4.69,2.04,3.02-.23,14.21.71,18.47-10.56,1.92-15.48,6.56-17.29,17.17-5.86,34.2,16.04,88.29-38.25,90.63-16.61.71-11.13-3.24-10.35-16.51,5.94-.8,14.34,1.1,19.88,0Z"/>
    <g>
      <path d="M335.23,154.56v21.25c0,4.06-8.66,23.98-11.24,28.52-2.13,3.76-15.46,22.25-18.44,22.76l-45.71-30.71,75.39-41.82Z"/>
      <path d="M215.94,153.2l.68,86.39c-15.63-7.95-31.68-22.88-39.32-38.84-2.44-5.09-9.26-20.44-4.39-24.1l43.03-23.45Z"/>
      <path d="M285.87,171.02v-86.38c15.56,7.08,30.95,20.44,39.16,35.57,1.93,3.55,7.54,18.06,7.36,21.42-.38,7.13-38.95,25.45-46.52,29.39Z"/>
      <path d="M224.17,186.1c12.11,5.34,22.99,12.85,33.9,20.26,10.85,7.37,24.01,16.65,34.28,24.68,1.34,1.04,3.49,1.49,3.14,3.72-10.36,4.19-20.85,10.52-32.25,11.65-5.42.54-39.06.68-39.06-6.16v-54.16Z"/>
      <path d="M277.64,140.85l-67.18-49.99c5.68-12.65,67.18-16.39,67.18-8.29v58.27Z"/>
      <path d="M169.34,168.28c-1.77-27.79,10.69-53,31.52-70.7,5.28,3.49,39.07,27.44,39.71,30.36.5,2.24-5.49,5.33-7.24,6.32-20.94,11.87-43.51,21.29-64,34.02Z"/>
    </g>
  </g>
  <g>
    <path d="M385.97,423.99c.07.59,1.88,1.89,1.37,3.42l-16.44,1.38-2.73-16.44c-13.75,25.78-56.88,22.94-73,.99-19.67-26.79-12.51-72.74,18.56-87.65,27.32-13.11,62.46-5.64,70.87,26.31-5.11-.82-13.79,1.28-18.29-.21-1.77-.59-4.99-8.02-8.45-10.75-6.91-5.44-16.05-6.34-24.52-5.34-31.18,3.7-41.59,52.14-20.06,71.86,14.77,13.54,36.78,8.52,48.74-6.16,2.63-3.23,6.38-9.99,6.14-13.75h-27.42v-16.45h45.25c1.41,16.73-1.91,36.43,0,52.79Z"/>
    <path d="M269.42,441.82c-5.58,33.71-71.51,35.4-71.3-3.43,2.68.46,15.68-.67,16.4.06.26.26.25,4.76,1.59,7.32,3.95,7.51,15.12,7.19,22.45,6.34,17.85-2.08,16-20.47,15.76-34.27-2.38,1.42-2.85,3.87-5.58,6.05-16.5,13.22-42.92,6.11-50.66-13.57-15.55-39.55,24.4-75.58,57.61-44.6l-1.19-9.43c4.69-2.17,9.9-1.53,14.92-1.53v87.07ZM229.32,368.82c-23.64,3.41-23.83,43.16-1.41,47.3,34.26,6.34,35.82-52.27,1.41-47.3Z"/>
    <path d="M73.34,356.12c2.6.43,15.88-.59,16.46,0,.73.73-1.11,8.05.67,9.6,8.94-15,37.23-17.08,42.5,1.37,11.43-16.51,41.91-19.78,48.05,2.7.41,1.49,2.01,10.7,2.01,11.7v45.93h-16.45v-48.68c0-.33-2.68-5.21-3.17-5.74-4.63-5.06-17.67-4.64-22.13,1.01-1.24,1.57-4.86,10.13-4.86,11.59v41.82h-15.08v-45.93c0-6.6-9.09-13.19-15.65-12.95-7.12.27-15.89,9.07-15.89,15.69v43.19h-16.45v-71.3Z"/>
    <path d="M472.93,392.49c0,21.24-17.22,38.45-38.45,38.45s-38.45-17.22-38.45-38.45,17.22-38.45,38.45-38.45,38.45,17.22,38.45,38.45ZM430.87,368.78c-21.07,3.33-24.63,37.82-3.73,45.57,34.89,12.94,39.88-51.28,3.73-45.57Z"/>
    <rect x="39.07" y="320.47" width="16.45" height="106.95"/>
  </g>
</svg>